<svg width="25" height="24" viewBox="0 0 25 24" fill="none" xmlns="http://www.w3.org/2000/svg">
<path d="M12.7391 19.2C10.2352 19.2 8.02177 17.92 6.72976 16C6.7598 14 10.736 12.9 12.7391 12.9C14.7422 12.9 18.7184 14 18.7485 16C17.4565 17.92 15.243 19.2 12.7391 19.2ZM12.7391 5C13.536 5 14.3003 5.31607 14.8638 5.87868C15.4272 6.44129 15.7438 7.20435 15.7438 8C15.7438 8.79565 15.4272 9.55871 14.8638 10.1213C14.3003 10.6839 13.536 11 12.7391 11C11.9422 11 11.178 10.6839 10.6145 10.1213C10.051 9.55871 9.73444 8.79565 9.73444 8C9.73444 7.20435 10.051 6.44129 10.6145 5.87868C11.178 5.31607 11.9422 5 12.7391 5ZM12.7391 2C11.4239 2 10.1215 2.25866 8.90632 2.7612C7.69116 3.26375 6.58705 4.00035 5.65702 4.92893C3.77872 6.8043 2.72351 9.34784 2.72351 12C2.72351 14.6522 3.77872 17.1957 5.65702 19.0711C6.58705 19.9997 7.69116 20.7362 8.90632 21.2388C10.1215 21.7413 11.4239 22 12.7391 22C15.3954 22 17.9429 20.9464 19.8212 19.0711C21.6995 17.1957 22.7547 14.6522 22.7547 12C22.7547 6.47 18.2477 2 12.7391 2Z" fill="black"/>
</svg>
