<svg width="24" height="24" viewBox="0 0 24 24" fill="none" xmlns="http://www.w3.org/2000/svg">
<rect opacity="0.01" width="24" height="24" fill="black"/>
<path fill-rule="evenodd" clip-rule="evenodd" d="M9 3H5C3.89543 3 3 3.89543 3 5V11C3 12.1046 3.89543 13 5 13H9C10.1046 13 11 12.1046 11 11V5C11 3.89543 10.1046 3 9 3ZM5 11V5H9V11H5ZM19 3H15C13.8954 3 13 3.89543 13 5V7C13 8.10457 13.8954 9 15 9H19C20.1046 9 21 8.10457 21 7V5C21 3.89543 20.1046 3 19 3ZM15 7V5H19V7H15ZM5 15H9C10.1046 15 11 15.8954 11 17V19C11 20.1046 10.1046 21 9 21H5C3.89543 21 3 20.1046 3 19V17C3 15.8954 3.89543 15 5 15ZM5 17V19H9V17H5ZM19 11H15C13.8954 11 13 11.8954 13 13V19C13 20.1046 13.8954 21 15 21H19C20.1046 21 21 20.1046 21 19V13C21 11.8954 20.1046 11 19 11ZM15 19V13H19V19H15Z" fill="black"/>
<mask id="mask0_805_12225" style="mask-type:luminance" maskUnits="userSpaceOnUse" x="3" y="3" width="18" height="18">
<path fill-rule="evenodd" clip-rule="evenodd" d="M9 3H5C3.89543 3 3 3.89543 3 5V11C3 12.1046 3.89543 13 5 13H9C10.1046 13 11 12.1046 11 11V5C11 3.89543 10.1046 3 9 3ZM5 11V5H9V11H5ZM19 3H15C13.8954 3 13 3.89543 13 5V7C13 8.10457 13.8954 9 15 9H19C20.1046 9 21 8.10457 21 7V5C21 3.89543 20.1046 3 19 3ZM15 7V5H19V7H15ZM5 15H9C10.1046 15 11 15.8954 11 17V19C11 20.1046 10.1046 21 9 21H5C3.89543 21 3 20.1046 3 19V17C3 15.8954 3.89543 15 5 15ZM5 17V19H9V17H5ZM19 11H15C13.8954 11 13 11.8954 13 13V19C13 20.1046 13.8954 21 15 21H19C20.1046 21 21 20.1046 21 19V13C21 11.8954 20.1046 11 19 11ZM15 19V13H19V19H15Z" fill="white"/>
</mask>
<g mask="url(#mask0_805_12225)">
<rect width="24" height="24" fill="#949494"/>
</g>
</svg>
