<svg width="25" height="24" viewBox="0 0 25 24" fill="none" xmlns="http://www.w3.org/2000/svg">
<path fill-rule="evenodd" clip-rule="evenodd" d="M22.8796 12C22.8796 17.5228 18.4025 22 12.8796 22C7.35679 22 2.87964 17.5228 2.87964 12C2.87964 6.47715 7.35679 2 12.8796 2C18.4025 2 22.8796 6.47715 22.8796 12ZM10.1249 19.5131C10.011 19.2483 9.90605 18.9694 9.80964 18.6802C9.52548 17.8277 9.29801 16.8324 9.13917 15.7405C8.04727 15.5816 7.0519 15.3542 6.19945 15.07C5.91021 14.9736 5.63134 14.8687 5.36659 14.7548C6.1743 16.957 7.92264 18.7053 10.1249 19.5131ZM5.36659 9.24521C6.1743 7.043 7.92264 5.29466 10.1249 4.48695C10.011 4.7517 9.90605 5.03057 9.80964 5.31981C9.52548 6.17227 9.29801 7.16763 9.13917 8.25953C8.04727 8.41837 7.0519 8.64584 6.19945 8.93C5.91021 9.02641 5.63134 9.13134 5.36659 9.24521ZM15.6344 4.48695C15.7483 4.7517 15.8532 5.03058 15.9496 5.31981C16.2338 6.17227 16.4613 7.16763 16.6201 8.25953C17.712 8.41837 18.7074 8.64584 19.5598 8.93C19.8491 9.02641 20.1279 9.13134 20.3927 9.24521C19.585 7.04301 17.8366 5.29466 15.6344 4.48695ZM20.3927 14.7548C20.1279 14.8687 19.8491 14.9736 19.5598 15.07C18.7074 15.3542 17.712 15.5816 16.6201 15.7405C16.4613 16.8324 16.2338 17.8277 15.9496 18.6802C15.8532 18.9694 15.7483 19.2483 15.6344 19.5131C17.8366 18.7053 19.585 16.957 20.3927 14.7548ZM12.8794 4C13.0211 3.99956 13.1893 4.23407 13.262 4.32624C13.5222 4.65642 13.8002 5.19616 14.0523 5.95227C14.2537 6.55656 14.427 7.26392 14.5622 8.05043C14.0144 8.0172 13.452 8 12.8796 8C12.3073 8 11.7449 8.0172 11.1971 8.05043C11.3323 7.26392 11.5056 6.55656 11.707 5.95227C11.959 5.19616 12.2371 4.65642 12.4973 4.32624C12.5704 4.23344 12.7372 4.00088 12.8794 4ZM5.20588 12.3823C5.53605 12.6425 6.0758 12.9206 6.83191 13.1726C7.4362 13.3741 8.14356 13.5474 8.93007 13.6825C8.89684 13.1347 8.87964 12.5724 8.87964 12C8.87964 11.4276 8.89684 10.8653 8.93007 10.3175C8.14356 10.4526 7.4362 10.6259 6.83191 10.8274C6.0758 11.0794 5.53605 11.3575 5.20588 11.6177C5.01624 11.7671 4.87945 11.8832 4.87964 12C4.87983 12.1157 5.0153 12.2321 5.20588 12.3823ZM10.8796 12C10.8796 12.6659 10.9046 13.3113 10.9514 13.9282C11.5684 13.975 12.2137 14 12.8796 14C13.5456 14 14.1909 13.975 14.8079 13.9282C14.8546 13.3113 14.8796 12.6659 14.8796 12C14.8796 11.3341 14.8546 10.6887 14.8079 10.0718C14.1909 10.025 13.5456 10 12.8796 10C12.2137 10 11.5684 10.025 10.9514 10.0718C10.9046 10.6887 10.8796 11.3341 10.8796 12ZM11.707 18.0477C11.5056 17.4434 11.3323 16.7361 11.1971 15.9496C11.7449 15.9828 12.3073 16 12.8796 16C13.452 16 14.0144 15.9828 14.5622 15.9496C14.427 16.7361 14.2537 17.4434 14.0523 18.0477C13.8002 18.8038 13.5222 19.3436 13.262 19.6738C13.076 19.9098 12.9598 19.9941 12.8796 19.994C12.8009 19.9939 12.6837 19.9103 12.4973 19.6738C12.2371 19.3436 11.959 18.8038 11.707 18.0477ZM18.9274 13.1726C18.3231 13.3741 17.6157 13.5474 16.8292 13.6825C16.8624 13.1347 16.8796 12.5724 16.8796 12C16.8796 11.4276 16.8624 10.8653 16.8292 10.3175C17.6157 10.4526 18.3231 10.6259 18.9274 10.8274C19.6835 11.0794 20.2232 11.3575 20.5534 11.6177C20.7929 11.8064 20.8796 11.875 20.8796 12C20.8796 12.125 20.6262 12.325 20.5534 12.3823C20.2232 12.6425 19.6835 12.9206 18.9274 13.1726Z" fill="#040921"/>
</svg>
