<svg width="31" height="45" viewBox="0 0 31 45" fill="none" xmlns="http://www.w3.org/2000/svg">
<g clip-path="url(#clip0_1110_5923)">
<path d="M8.85186 16.1864C8.47791 15.8479 7.94949 15.7028 7.43584 15.8506C6.92218 15.9981 6.55099 16.4019 6.41284 16.8875C6.78679 17.226 7.31515 17.371 7.82887 17.2232C8.3421 17.0757 8.71371 16.6719 8.85186 16.1864Z" fill="#33BBBD"/>
<path d="M12.9409 6.75687C13.3244 6.64709 13.6436 6.35222 13.7603 5.94436C13.8769 5.53652 13.7623 5.11718 13.4946 4.82031C13.1112 4.9301 12.792 5.22499 12.6757 5.63283C12.559 6.0407 12.6734 6.46002 12.9409 6.75687Z" fill="#F36518"/>
<path d="M19.3729 2.63498C19.0911 2.45781 18.7314 2.42451 18.4142 2.57948C18.0974 2.73446 17.9021 3.03925 17.8677 3.371C18.1495 3.54777 18.5095 3.58146 18.8263 3.42649C19.1435 3.27152 19.3388 2.96632 19.3729 2.63498Z" fill="#8FD123"/>
<path d="M12.5057 0.945312C12.1913 1.05352 11.9384 1.31273 11.8594 1.65716C11.78 2.00158 11.8936 2.34562 12.129 2.58105C12.4433 2.47284 12.6962 2.21363 12.7752 1.8692C12.8547 1.52478 12.7411 1.18075 12.5057 0.945312Z" fill="#8FD123"/>
<path d="M7.29329 13.6972C7.13846 13.2164 6.75305 12.8265 6.23459 12.6965C5.71614 12.5669 5.19333 12.7306 4.8313 13.0817C4.98651 13.5625 5.37157 13.9529 5.89001 14.0825C6.40845 14.2121 6.93129 14.0484 7.29329 13.6972Z" fill="#F36518"/>
<path d="M23.4269 5.93651C23.0531 5.59803 22.5246 5.45296 22.011 5.6004C21.4973 5.74824 21.1262 6.15211 20.988 6.63764C21.3619 6.97612 21.8903 7.12119 22.4039 6.97337C22.9172 6.8259 23.2888 6.42204 23.4269 5.93651Z" fill="#8FD123"/>
<path d="M17.3471 5.69922C16.8703 5.86292 16.4876 6.25567 16.3677 6.7777C16.2474 7.29966 16.4193 7.82091 16.7762 8.17762C17.2529 8.01392 17.6356 7.62114 17.7555 7.09911C17.8758 6.57714 17.7039 6.05596 17.3471 5.69922Z" fill="#33BBBD"/>
<path d="M11.5467 8.65816C11.5789 8.20474 11.3888 7.74893 10.9998 7.46551C10.6108 7.18215 10.1193 7.1417 9.6993 7.31253C9.66714 7.76595 9.85726 8.22176 10.2463 8.50518C10.6353 8.78854 11.1268 8.82899 11.5467 8.65816Z" fill="#8FD123"/>
<path d="M7.72018 7.60734C7.74917 7.1991 7.57807 6.78889 7.22795 6.53405C6.87783 6.27878 6.43559 6.24235 6.05768 6.39611C6.0283 6.80435 6.19938 7.21456 6.5495 7.46982C6.90003 7.72466 7.34185 7.76115 7.72018 7.60734Z" fill="#33BBBD"/>
<path d="M8.88036 2.42345C8.80096 2.92205 8.96732 3.44523 9.37061 3.7968C9.77396 4.14835 10.3138 4.24071 10.7954 4.09208C10.8748 3.59347 10.7084 3.07028 10.3051 2.71873C9.90179 2.36756 9.36191 2.27521 8.88036 2.42345Z" fill="#8FD123"/>
<path d="M14.6978 1.02344C14.4116 1.49906 14.3664 2.1015 14.6331 2.62667C14.9003 3.15144 15.4127 3.46891 15.9649 3.51647C16.2511 3.04085 16.2964 2.43841 16.0296 1.91324C15.7628 1.38847 15.2499 1.071 14.6978 1.02344Z" fill="#33BBBD"/>
<path d="M21.9509 2.35853C21.5501 2.31572 21.1404 2.47069 20.8771 2.80839C20.6139 3.14608 20.5628 3.58246 20.7013 3.96216C21.1019 4.00497 21.5119 3.84959 21.7751 3.51191C22.0384 3.17422 22.0895 2.73784 21.9509 2.35853Z" fill="#F36518"/>
<path d="M18.9871 0.265625C18.5857 0.300107 18.2126 0.531179 18.0185 0.912863C17.8244 1.29455 17.8573 1.73291 18.0656 2.07892C18.4671 2.04404 18.8402 1.81337 19.0339 1.43169C19.228 1.0496 19.1951 0.611639 18.9871 0.265625Z" fill="#8FD123"/>
<path d="M6.25383 10.5722C6.286 10.1187 6.09582 9.66294 5.7068 9.37958C5.31777 9.09621 4.82632 9.05577 4.40633 9.2266C4.37418 9.68001 4.56432 10.1358 4.95335 10.4192C5.34239 10.7026 5.83383 10.743 6.25383 10.5722Z" fill="#8FD123"/>
<path d="M20.3749 9.74609C20.0176 9.86898 19.7306 10.1635 19.6402 10.5551C19.5499 10.9467 19.679 11.3375 19.9469 11.605C20.3042 11.4821 20.5912 11.1877 20.6814 10.7961C20.7715 10.4045 20.6424 10.0137 20.3749 9.74609Z" fill="#F36518"/>
<path d="M25.3788 10.4123C25.0985 10.1583 24.702 10.0497 24.3169 10.1602C23.9319 10.2712 23.6531 10.5741 23.5496 10.9383C23.8298 11.192 24.226 11.301 24.6114 11.19C24.9965 11.0794 25.2753 10.7766 25.3788 10.4123Z" fill="#8FD123"/>
<path d="M9.46154 11.6991C9.82396 11.6991 10.1181 11.4046 10.1181 11.0412C10.1181 10.6777 9.82396 10.3828 9.46154 10.3828C9.09912 10.3828 8.80493 10.6777 8.80493 11.0412C8.80493 11.4046 9.09912 11.6991 9.46154 11.6991Z" fill="#33BBBD"/>
<path d="M6.8304 4.78234C7.1567 4.78234 7.42111 4.51719 7.42111 4.1902C7.42111 3.86321 7.1567 3.59766 6.8304 3.59766C6.5041 3.59766 6.23975 3.86321 6.23975 4.1902C6.23975 4.51719 6.5041 4.78234 6.8304 4.78234Z" fill="#F36518"/>
<path d="M18.2571 5.33664C18.5835 5.33664 18.8478 5.07148 18.8478 4.74449C18.8478 4.4175 18.5835 4.15234 18.2571 4.15234C17.9308 4.15234 17.6665 4.4175 17.6665 4.74449C17.6665 5.07148 17.9308 5.33664 18.2571 5.33664Z" fill="#F36518"/>
<path d="M22.2881 17.3667C22.6795 17.3667 22.9971 17.0484 22.9971 16.656C22.9971 16.2636 22.6795 15.9453 22.2881 15.9453C21.8967 15.9453 21.5791 16.2636 21.5791 16.656C21.5791 17.0484 21.8967 17.3667 22.2881 17.3667Z" fill="#8FD123"/>
<path d="M22.1699 9.56975C22.5614 9.56975 22.879 9.25145 22.879 8.8591C22.879 8.46668 22.5614 8.14844 22.1699 8.14844C21.7785 8.14844 21.4609 8.46668 21.4609 8.8591C21.4609 9.25145 21.7785 9.56975 22.1699 9.56975Z" fill="#33BBBD"/>
<path d="M25.7801 14.0884C25.4942 13.78 25.0663 13.6215 24.6289 13.7063C24.1918 13.7915 23.8544 14.0999 23.7043 14.493C23.9906 14.801 24.4185 14.96 24.8555 14.8747C25.2926 14.7895 25.6301 14.4816 25.7801 14.0884Z" fill="#33BBBD"/>
<path d="M26.6434 11.9852C26.5756 11.8152 22.946 12.2444 22.5661 11.8068C22.1862 11.3693 22.7289 10.703 23.2489 10.2119C23.8066 9.67967 24.6522 8.40817 24.383 8.30511C23.8336 8.98526 23.5292 9.35467 22.8916 9.96663C22.2958 10.5381 21.5813 11.3245 20.8452 11.7609C20.1584 12.1691 19.6544 12.5861 18.808 12.4497C17.9617 12.3134 17.5386 12.0094 18.2201 11.1335C18.9017 10.2579 21.2442 8.16399 21.2442 8.16399C21.2037 7.80453 19.9859 8.69315 19.3432 9.18659C19.0276 9.43076 18.2761 9.92379 18.2705 9.6868C18.2654 9.44736 18.6667 8.74031 19.0133 8.26903C19.7385 7.28053 20.9718 5.62459 22.3362 4.14423C22.1656 3.9631 19.7524 6.42679 19.7524 6.24134C19.7524 6.05582 19.8325 5.35587 19.9493 4.71457C20.0573 4.126 20.5845 2.36066 20.6131 1.75979C20.3991 1.85055 19.6881 4.62659 19.3535 5.52313C19.0208 6.41217 17.1507 9.50884 16.9073 9.83582C16.5973 10.252 16.2305 10.0193 16.1141 9.42597C16.0427 9.06256 15.4449 7.07009 15.7724 6.4193C16.0999 5.76808 16.8136 5.52075 17.2206 4.08716C17.6274 2.65356 17.2638 0.178755 17.0065 0C17.0121 0.842243 16.9823 1.31905 16.8795 2.15534C16.8065 2.75463 16.8116 3.11135 16.6238 3.68011C16.4679 4.16246 16.342 4.42722 16.0713 4.84815C15.7724 5.16324 15.637 5.37251 15.3012 5.2984C15.1039 5.25242 14.9844 5.16483 14.8764 4.9833C14.5883 4.56119 13.3413 1.43875 13.1698 1.30201C13.1698 1.52674 14.1552 4.96943 14.2421 5.88103C14.3163 6.61308 14.1924 7.16914 14.1217 7.90244L13.853 9.15807C13.6621 9.22662 13.2171 8.39427 12.83 7.81166C12.4931 7.30276 12.3116 7.00586 12.0207 6.46364C12.1068 6.07326 12.1699 5.61429 12.1286 4.97934C12.087 4.34439 13.0222 3.62184 12.9873 3.40821C12.9638 3.26553 12.0071 4.07328 11.9719 3.92465C11.9262 3.73321 11.8698 3.53702 11.8015 3.33726C11.3648 2.05983 10.2391 1.07015 9.81387 0.801419C10.0548 1.40348 10.8071 2.11532 11.1025 3.14583C11.3978 4.17673 11.5284 5.21992 11.2617 5.43038C10.9206 5.70228 10.0608 5.34279 9.34907 4.90641C8.32841 4.27622 8.00968 3.4205 7.6913 3.41693C7.37293 3.41337 8.40151 4.50848 8.54476 5.12956C8.6885 5.75103 6.43846 5.3527 6.23958 5.32496C5.89304 5.28294 5.8192 5.46328 6.0947 5.55523C6.50874 5.69277 7.25861 5.82673 7.67186 5.88103C9.03741 6.06098 10.2315 6.02766 11.3383 7.09268C12.2588 7.98052 12.5863 8.80136 12.784 10.0994C12.8908 10.7962 11.9476 10.5497 10.2069 9.48739C9.57892 9.13068 8.79328 8.46204 8.68651 7.3063C8.5555 6.99399 8.38998 8.1779 8.59283 8.63251C8.72144 8.92102 7.07245 8.30235 6.4456 8.43627C6.07879 8.52549 8.28238 8.74821 9.29865 9.61544C9.84129 10.0787 11.6201 11.3831 12.2965 12.0102C12.4875 12.187 12.3859 12.6907 12.0965 12.7815C11.7372 12.894 11.0945 12.839 10.4221 12.749C9.20809 12.5873 8.68771 11.9916 8.13235 11.4961C7.57656 11.0007 6.85213 9.73037 6.85213 9.73037C6.85213 10.1334 6.90729 10.7391 7.15898 11.1572C7.38086 11.5223 7.52578 11.7244 7.79771 12.0522C7.79771 12.0522 5.56355 11.5024 4.96849 11.5024C5.05503 11.728 6.43689 12.0308 7.09225 12.4073C7.87032 12.8505 10.5098 14.1941 10.4272 14.4188C10.2514 14.8829 8.03308 14.7331 7.26737 14.8211C6.48214 14.9147 5.24836 15.0498 5.23247 15.3055C5.2166 15.5611 6.4198 15.2812 7.11571 15.347C8.4515 15.4723 9.37721 15.4822 10.5264 15.7945C11.3359 16.0145 12.3088 16.6264 12.4891 17.0086C12.6677 17.3764 12.8678 17.7267 12.83 18.8543L12.757 21.6431C4.06578 21.7544 0.046875 22.4702 0.046875 22.4702C0.046875 22.4702 4.06578 23.186 12.757 23.2974L12.83 26.0862C12.8678 27.2142 12.6677 27.5641 12.4891 27.9324C12.3088 28.3144 11.3359 28.9259 10.5264 29.1463C9.37721 29.4587 8.4515 29.4686 7.11571 29.5938C6.4198 29.6593 5.2166 29.3798 5.23247 29.6355C5.24836 29.8911 6.48214 30.0263 7.26737 30.1198C8.03308 30.2078 10.2514 30.058 10.4272 30.5221C10.5098 30.7468 7.87032 32.0904 7.09225 32.5336C6.43689 32.9101 5.05503 33.2125 4.96849 33.4384C5.56355 33.4384 7.79771 32.8887 7.79771 32.8887C7.52578 33.216 7.38086 33.4182 7.15898 33.7836C6.90729 34.2018 6.85213 34.8074 6.85213 35.2101C6.85213 35.2101 7.57656 33.9398 8.13235 33.4448C8.68771 32.9493 9.20809 32.3536 10.4221 32.1915C11.0945 32.102 11.7372 32.0464 12.0965 32.1594C12.3859 32.2501 12.4875 32.7539 12.2965 32.9307C11.6201 33.5577 9.84129 34.8621 9.29865 35.3251C8.28238 36.1923 6.07879 36.4154 6.4456 36.5046C7.07245 36.6386 8.72144 36.0195 8.59283 36.308C8.38998 36.7626 8.5555 37.9469 8.68651 37.6346C8.79328 36.4788 9.57892 35.8102 10.2069 35.4535C11.9476 34.3913 12.8908 34.1447 12.784 34.8415C12.5863 36.1395 12.2588 36.9604 11.3383 37.8482C10.2315 38.9132 9.03741 38.8799 7.67186 39.0598C7.25861 39.1137 6.50874 39.2481 6.0947 39.3857C5.8192 39.4772 5.89304 39.6579 6.23958 39.6159C6.43846 39.5878 8.6885 39.1894 8.54476 39.8109C8.40151 40.4324 7.37293 41.5275 7.6913 41.524C8.00968 41.5204 8.32841 40.6647 9.34907 40.0345C10.0608 39.5981 10.9206 39.2386 11.2617 39.5101C11.5284 39.721 11.3978 40.7641 11.1025 41.7946C10.8071 42.8256 10.0548 43.5374 9.81387 44.1395C10.2391 43.8703 11.3648 42.8806 11.8015 41.6036C11.8698 41.4038 11.9262 41.2077 11.9719 41.0162C12.0071 40.8676 12.9638 41.675 12.9873 41.5327C13.0222 41.3186 12.087 40.5965 12.1286 39.9616C12.1699 39.3266 12.1068 38.8676 12.0207 38.4768C12.3116 37.9346 12.4931 37.6377 12.83 37.1288C13.2171 36.5462 13.6621 35.7142 13.853 35.7824L14.1217 37.0385C14.1924 37.7717 14.3163 38.3278 14.2421 39.0598C14.1552 39.971 13.1698 43.4142 13.1698 43.6388C13.3413 43.5021 14.5883 40.3797 14.8764 39.9572C14.9844 39.776 15.1039 39.6881 15.3012 39.6425C15.637 39.5684 15.7724 39.7776 16.0713 40.0924C16.342 40.5137 16.4679 40.7784 16.6238 41.2607C16.8116 41.8291 16.8065 42.1863 16.8795 42.7855C16.9823 43.6218 17.0121 44.0986 17.0065 44.9405C17.2638 44.7621 17.6274 42.2873 17.2206 40.8537C16.8136 39.4201 16.0999 39.1724 15.7724 38.5216C15.4449 37.8708 16.0427 35.8784 16.1141 35.5145C16.2305 34.9216 16.5973 34.6889 16.9073 35.1051C17.1507 35.4321 19.0208 38.5283 19.3535 39.4177C19.6881 40.3143 20.3991 43.0903 20.6131 43.1811C20.5845 42.5802 20.0573 40.8145 19.9493 40.2263C19.8325 39.585 19.7524 38.885 19.7524 38.6996C19.7524 38.5141 22.1656 40.9774 22.3362 40.7962C20.9718 39.3159 19.7385 37.66 19.0133 36.6718C18.6667 36.2006 18.2654 35.2985 18.2705 35.0587C18.2761 34.8217 19.0276 35.5101 19.3432 35.7539C19.9859 36.2473 21.2037 37.1364 21.2442 36.7769C21.2442 36.7769 18.9017 34.683 18.2201 33.807C17.5386 32.9315 17.9617 32.6275 18.808 32.4911C19.6544 32.3548 20.1584 32.7717 20.8452 33.18C21.5813 33.6164 22.2958 34.4023 22.8916 34.9739C23.5292 35.5858 23.8336 35.9552 24.383 36.6354C24.6522 36.5323 23.8066 35.2612 23.2489 34.7285C22.7289 34.2379 22.1862 33.5716 22.5661 33.134C22.946 32.6964 26.5756 33.1253 26.6434 32.9556C26.726 32.7353 23.6137 32.0659 22.0722 32.0536C20.5312 32.0413 18.5667 30.6346 18.8815 30.1103C19.1962 29.5859 20.7099 29.922 23.318 30.9854C23.7205 31.023 22.5645 30.2367 22.2303 29.9743C23.2803 29.937 24.9769 29.1531 24.9309 28.9259C23.2803 29.4499 22.355 29.4876 21.1191 29.1131C19.8834 28.7385 17.7322 28.0171 17.7322 27.7773C17.7322 27.1055 17.7076 26.2229 17.7918 25.0101L17.8807 23.2903C26.2027 23.1571 30.0538 22.4702 30.0538 22.4702C30.0538 22.4702 26.2027 21.7834 17.8807 21.6506L17.7918 19.9308C17.7076 18.718 17.7322 17.8353 17.7322 17.1631C17.7322 16.9234 19.8834 16.2024 21.1191 15.8278C22.355 15.4533 23.2803 15.4905 24.9309 16.0149C24.9769 15.7878 23.2803 15.0038 22.2303 14.9661C22.5645 14.7042 23.7205 13.9178 23.318 13.9551C20.7099 15.0189 19.1962 15.3549 18.8815 14.8306C18.5667 14.3062 20.5312 12.8996 22.0722 12.8873C23.6137 12.875 26.726 12.2056 26.6434 11.9852Z" fill="white"/>
</g>
<defs>
<clipPath id="clip0_1110_5923">
<rect width="30.0469" height="45" fill="white" transform="translate(0.046875)"/>
</clipPath>
</defs>
</svg>
