
<svg xmlns="http://www.w3.org/2000/svg" width="24" height="24" viewBox="0 0 24 24">
  <path fill="none" stroke="#949494" d="M12 1c-6.075 0-11 4.925-11 11 0 1.16.163 2.281.472 3.335l1.529-.367c-.275-.878-.427-1.794-.427-2.768 0-5.523 4.478-10 10-10s10 4.477 10 10c0 .975-.152 1.89-.427 2.768l1.529.367c.309-1.054.472-2.175.472-3.335 0-6.075-4.925-11-11-11zm0 2c-4.971 0-9 4.029-9 9 0 1.128.212 2.206.596 3.202l1.531-.367c-.332-.841-.527-1.751-.527-2.835 0-3.866 3.134-7 7-7s7 3.134 7 7c0 1.084-.195 1.994-.527 2.835l1.531.367c.384-.996.596-2.074.596-3.202 0-4.971-4.029-9-9-9zm0 10.965c-.964 0-1.749.785-1.749 1.749s.785 1.749 1.749 1.749 1.749-.785 1.749-1.749-.785-1.749-1.749-1.749zm-.001 2.249c-.276 0-.5-.224-.5-.5s.224-.5.5-.5.5.224.5.5-.224.5-.5.5z"/>
</svg>
