<svg
  width="24"
  height="24"
  viewBox="0 0 24 24"
  fill="#949494"
  xmlns="http://www.w3.org/2000/svg"
>
  <path
    d="M12 2C13.1 2 14 2.9 14 4V5.17C15.16 5.58 16.16 6.27 16.97 7.1L18.83 6C19.65 5.52 20.78 5.77 21.32 6.6C21.88 7.42 21.67 8.54 20.87 9.11L19 10.5C19.19 11.1 19.29 11.72 19.29 12.34C19.29 12.96 19.19 13.58 19 14.17L20.87 15.56C21.67 16.13 21.88 17.26 21.32 18.08C20.78 18.91 19.65 19.16 18.83 18.68L16.97 17.58C16.16 18.41 15.16 19.1 14 19.5V20.67C14 21.79 13.1 22.67 12 22.67C10.9 22.67 10 21.79 10 20.67V19.5C8.84 19.1 7.84 18.41 7.03 17.58L5.17 18.68C4.35 19.16 3.22 18.91 2.68 18.08C2.12 17.26 2.33 16.13 3.13 15.56L5 14.17C4.81 13.58 4.71 12.96 4.71 12.34C4.71 11.72 4.81 11.1 5 10.5L3.13 9.11C2.33 8.54 2.12 7.42 2.68 6.6C3.22 5.77 4.35 5.52 5.17 6L7.03 7.1C7.84 6.27 8.84 5.58 10 5.17V4C10 2.9 10.9 2 12 2ZM12 15C13.66 15 15 13.66 15 12C15 10.34 13.66 9 12 9C10.34 9 9 10.34 9 12C9 13.66 10.34 15 12 15Z"
    fill="#949494"
  />
</svg>
