<svg width="15" height="15" viewBox="0 0 15 15" fill="none" xmlns="http://www.w3.org/2000/svg">
<path d="M10.2924 9.59429H9.6581L9.43871 9.37523C10.2206 8.47112 10.6913 7.29619 10.6913 6.00973C10.6913 3.15005 8.36964 0.832031 5.50549 0.832031C2.64134 0.832031 0.319702 3.15005 0.319702 6.00973C0.319702 8.86941 2.64134 11.1874 5.50549 11.1874C6.79396 11.1874 7.97073 10.7174 8.87625 9.94079L9.09565 10.1599V10.7891L13.0847 14.764L14.2735 13.5771L10.2924 9.59429ZM5.50549 9.59429C3.52292 9.59429 1.91533 7.9892 1.91533 6.00973C1.91533 4.03025 3.52292 2.42517 5.50549 2.42517C7.48805 2.42517 9.09565 4.03025 9.09565 6.00973C9.09565 7.9892 7.48805 9.59429 5.50549 9.59429Z" fill="#1D1D1D"/>
</svg>
